<?xml version="1.0" encoding="UTF-8" standalone="no"?>
<svg width="597px" height="204px" viewBox="0 0 597 204" version="1.1" xmlns="http://www.w3.org/2000/svg" xmlns:xlink="http://www.w3.org/1999/xlink">
    <!-- Generator: Sketch 3.8.3 (29802) - http://www.bohemiancoding.com/sketch -->
    <title>uw-crest-wordmark-overlay 2</title>
    <desc>Created with Sketch.</desc>
    <defs>
        <radialGradient cx="49.9368753%" cy="50.0247158%" fx="49.9368753%" fy="50.0247158%" r="65.8815789%" id="radialGradient-1">
            <stop stop-color="#FFFFFF" offset="16.56%"></stop>
            <stop stop-color="#F6EEE5" offset="29.82%"></stop>
            <stop stop-color="#DEBF9C" offset="68.52%"></stop>
            <stop stop-color="#D5AD80" offset="86.5%"></stop>
        </radialGradient>
        <linearGradient x1="49.9686277%" y1="98.7763973%" x2="49.9686277%" y2="-0.0142622951%" id="linearGradient-2">
            <stop stop-color="#891C21" offset="0%"></stop>
            <stop stop-color="#931E23" offset="3.047632%"></stop>
            <stop stop-color="#A92027" offset="8.241533%"></stop>
            <stop stop-color="#BB2029" offset="14.19%"></stop>
            <stop stop-color="#C8202A" offset="21.24%"></stop>
            <stop stop-color="#D0202B" offset="30.49%"></stop>
            <stop stop-color="#D2202B" offset="50.31%"></stop>
            <stop stop-color="#CF202B" offset="67.02%"></stop>
            <stop stop-color="#C6202A" offset="77.71%"></stop>
            <stop stop-color="#B72028" offset="86.7%"></stop>
            <stop stop-color="#A21F25" offset="94.7%"></stop>
            <stop stop-color="#911D22" offset="100%"></stop>
        </linearGradient>
    </defs>
    <g id="Page-1" stroke="none" stroke-width="1" fill="none" fill-rule="evenodd">
        <g id="uw-crest-wordmark-overlay">
            <g id="Group" transform="translate(133.000000, 84.000000)" fill="#D0011B">
                <path d="M71.6,2 C78.6,4.5 75.6,12.1 74,17.4 L63.9,51.5 L51.4,11.2 C50.1,7.1 49.5,4.1 50.1,1.8 L37.4,1.8 L37.4,2 C42.3,4.6 40.5,10.7 38.8,16.3 L28.3,51.7 L15,8.4 C14.5,6.6 13.6,3.7 13.9,1.7 L0.8,1.7 L0.8,2 C5.3,5.2 6.6,11.2 8.3,16.3 L18.9,50.6 C21.9,60.2 22.7,59.5 30.8,65.7 L44.8,18.7 L54.7,50.7 C57.7,60.3 58.3,59.8 66.6,65.7 L85.5,1.7 L71.7,1.7 L71.7,2 L71.6,2 Z" id="Shape"></path>
                <path d="M88.5,2 C93.1,3.8 92.4,10.6 92.4,14.9 L92.4,50 C92.4,54.2 92.9,61.1 88.5,62.8 L88.5,63.1 L105.6,63.1 L105.6,62.8 C101.1,61 101.6,54.2 101.6,50 L101.6,14.8 C101.6,10.6 101.1,3.7 105.6,1.9 L105.6,1.6 L88.5,1.6 L88.5,2 L88.5,2 Z" id="Shape"></path>
                <path d="M121.2,15.4 C121.2,9 127.7,6.9 132.8,6.9 C137.8,6.9 143.4,9 146.9,12.8 L146.9,2.2 C142.6,0.8 138,0.2 133.5,0.2 C122.5,0.2 111,4.7 111,16.4 C111,36.1 141.9,33.5 141.9,48.1 C141.9,54.6 134.2,57.8 129.1,57.8 C122.1,57.8 114.7,54.8 109.4,50.1 L112,61.7 C117.1,63.7 122.6,64.5 128.1,64.5 C142.1,64.5 152.2,55.2 152.2,45.2 C152.1,27.9 121.2,28.1 121.2,15.4 L121.2,15.4 Z" id="Shape"></path>
                <path d="M188.5,56.7 C174.7,56.7 165.7,44.5 165.7,30.8 C165.7,17.3 174.3,7.9 186.7,7.9 C192.6,7.9 198.4,9.9 203.3,13.2 L203.3,2.5 C198,1.2 192.4,0.2 187,0.2 C168.6,0.2 155.5,13 155.5,32.2 C155.5,52.1 168.6,64.4 189.8,64.4 C194.5,64.4 199.1,63.7 203.4,61.6 L208,50.8 L207.7,50.8 C202,54.2 195.3,56.7 188.5,56.7 L188.5,56.7 Z" id="Shape"></path>
                <path d="M240.3,0.1 C221.5,-0.4 206.6,14.4 206.6,32.1 C206.6,51.2 221.6,64.4 239.4,64.4 C257.3,64.4 272.4,50.6 272.4,31.6 C272.4,14.9 259.1,-2.12885265e-14 240.3,0.1 L240.3,0.1 Z M239.8,57.7 C225.7,57.7 216.8,44.3 216.8,31.3 C216.8,17.2 225.7,6.8 239.6,6.8 C253.8,6.8 262.1,19.9 262.1,33.5 C262.2,47.4 253.5,57.7 239.8,57.7 L239.8,57.7 Z" id="Shape"></path>
                <path d="M318.5,2 C323.3,4.8 323.2,8.5 323.2,13.7 L323.2,49 L290.3,6 L289,4.1 C288.4,3.4 288,2.9 287.7,1.8 L287.7,1.7 L274.6,1.7 L274.6,2 C279.3,4.8 279.3,8.5 279.3,13.7 L279.3,50.8 C279.3,56 279.3,59.7 274.5,62.6 L274.5,62.9 L290.4,62.9 L290.4,62.6 C285.6,59.7 285.7,56 285.7,50.8 L285.7,14.8 L316.5,55.3 C320.4,60.6 323.2,63.7 329.6,65.9 L329.6,13.7 C329.6,8.5 329.6,4.8 334.3,2 L334.3,1.7 L318.5,1.7 L318.5,2 L318.5,2 Z" id="Shape"></path>
                <path d="M347.5,15.4 C347.5,9 354,6.9 359.1,6.9 C364.1,6.9 369.7,9 373.2,12.8 L373.2,2.2 C368.9,0.8 364.3,0.2 359.8,0.2 C348.9,0.2 337.3,4.7 337.3,16.4 C337.3,36.1 368.2,33.5 368.2,48.1 C368.2,54.6 360.5,57.8 355.4,57.8 C348.4,57.8 341,54.8 335.7,50.1 L338.3,61.7 C343.4,63.7 348.9,64.5 354.4,64.5 C368.4,64.5 378.4,55.2 378.4,45.2 C378.3,27.9 347.5,28.1 347.5,15.4 L347.5,15.4 Z" id="Shape"></path>
                <path d="M381.7,2 C386.3,3.8 385.7,10.6 385.7,14.9 L385.7,50 C385.7,54.2 386.2,61.1 381.7,62.8 L381.7,63.1 L398.8,63.1 L398.8,62.8 C394.3,61 394.9,54.2 394.9,50 L394.9,14.8 C394.9,10.6 394.4,3.7 398.8,1.9 L398.8,1.6 L381.7,1.6 L381.7,2 L381.7,2 Z" id="Shape"></path>
                <path d="M447.2,1.7 L447.2,2 C452,4.8 451.9,8.5 451.9,13.7 L451.9,49 L419,6 L417.7,4.1 C417.1,3.4 416.7,2.9 416.4,1.8 L416.4,1.7 L403.3,1.7 L403.3,2 C408,4.8 408,8.5 408,13.7 L408,50.8 C408,56 408,59.7 403.2,62.6 L403.2,62.9 L419.1,62.9 L419.1,62.6 C414.3,59.7 414.4,56 414.4,50.8 L414.4,14.8 L445.2,55.3 C449.1,60.6 451.9,63.7 458.3,65.9 L458.3,13.7 C458.3,8.5 458.3,4.8 463,2 L463,1.7 L447.2,1.7 L447.2,1.7 Z" id="Shape"></path>
            </g>
            <g id="Group" transform="translate(151.000000, 160.000000)" fill="#D0011B">
                <path d="M3.1,0.7 L3.1,10.2 C3.1,13.4 4.4,14.9 6.4,14.9 C8.5,14.9 9.8,13.4 9.8,10.2 L9.8,0.7 L12.8,0.7 L12.8,10 C12.8,15 10.2,17.2 6.3,17.2 C2.5,17.2 0.1,15.1 0.1,10 L0.1,0.7 L3.1,0.7 L3.1,0.7 Z" id="Shape"></path>
                <path d="M17.6,17 L17.6,0.7 L21,0.7 L25.2,7.7 C26.3,9.5 27.2,11.4 28,13.2 L28,13.2 C27.8,11 27.7,8.9 27.7,6.4 L27.7,0.7 L30.5,0.7 L30.5,17 L27.4,17 L23.2,9.8 C22.2,8 21.1,6 20.3,4.2 L20.2,4.2 C20.3,6.3 20.4,8.4 20.4,11.1 L20.4,16.9 L17.6,16.9 L17.6,17 Z" id="Shape"></path>
                <polygon id="Shape" points="38.3 0.7 38.3 17 35.3 17 35.3 0.7"></polygon>
                <path d="M46.8,17 L41.5,0.7 L44.7,0.7 L46.9,8.1 C47.5,10.2 48.1,12 48.5,14 L48.6,14 C49,12.1 49.6,10.1 50.3,8.1 L52.7,0.7 L55.9,0.7 L50.3,17 L46.8,17 L46.8,17 Z" id="Shape"></path>
                <polygon id="Shape" points="68.1 9.8 62 9.8 62 14.6 68.9 14.6 68.9 17 59 17 59 0.7 68.5 0.7 68.5 3.1 62 3.1 62 7.3 68.1 7.3"></polygon>
                <path d="M72.8,0.9 C73.9,0.7 75.6,0.5 77.3,0.5 C79.6,0.5 81.2,0.9 82.3,1.8 C83.2,2.5 83.7,3.7 83.7,5.1 C83.7,7.2 82.3,8.6 80.7,9.2 L80.7,9.3 C81.9,9.7 82.6,10.9 83,12.4 C83.5,14.4 84,16.3 84.3,16.9 L81.3,16.9 C81.1,16.4 80.7,15.1 80.2,13.1 C79.7,11 79,10.3 77.3,10.3 L75.8,10.3 L75.8,17 L72.9,17 L72.9,0.9 L72.8,0.9 Z M75.8,8.1 L77.6,8.1 C79.6,8.1 80.8,7 80.8,5.4 C80.8,3.6 79.6,2.8 77.6,2.8 C76.7,2.8 76.1,2.9 75.8,2.9 L75.8,8.1 L75.8,8.1 Z" id="Shape"></path>
                <path d="M87.9,13.7 C88.8,14.3 90.3,14.7 91.8,14.7 C93.7,14.7 94.7,13.8 94.7,12.5 C94.7,11.3 93.9,10.5 91.8,9.8 C89.1,8.8 87.4,7.4 87.4,5.1 C87.4,2.4 89.6,0.4 93.2,0.4 C95,0.4 96.2,0.8 97.1,1.2 L96.4,3.6 C95.8,3.3 94.7,2.8 93.1,2.8 C91.2,2.8 90.4,3.8 90.4,4.8 C90.4,6.1 91.3,6.6 93.5,7.5 C96.3,8.6 97.7,10 97.7,12.3 C97.7,14.9 95.7,17.2 91.5,17.2 C89.8,17.2 88,16.7 87.1,16.2 L87.9,13.7 L87.9,13.7 Z" id="Shape"></path>
                <polygon id="Shape" points="104.8 0.7 104.8 17 101.8 17 101.8 0.7"></polygon>
                <polygon id="Shape" points="112.8 3.2 108.2 3.2 108.2 0.7 120.5 0.7 120.5 3.2 115.8 3.2 115.8 17 112.8 17"></polygon>
                <path d="M127.5,17 L127.5,10.2 L122.4,0.7 L125.8,0.7 L127.7,4.9 C128.3,6.1 128.7,7 129.1,8.1 L129.1,8.1 C129.5,7.1 129.9,6 130.5,4.9 L132.5,0.7 L135.9,0.7 L130.5,10.1 L130.5,17 L127.5,17 L127.5,17 Z" id="Shape"></path>
                <path d="M159.9,8.7 C159.9,14.2 156.6,17.3 152.1,17.3 C147.5,17.3 144.6,13.8 144.6,9 C144.6,4 147.8,0.5 152.3,0.5 C157.1,0.4 159.9,4 159.9,8.7 L159.9,8.7 Z M147.8,8.9 C147.8,12.2 149.5,14.9 152.3,14.9 C155.2,14.9 156.8,12.2 156.8,8.8 C156.8,5.7 155.3,2.8 152.3,2.8 C149.4,2.8 147.8,5.5 147.8,8.9 L147.8,8.9 Z" id="Shape"></path>
                <polygon id="Shape" points="163.9 0.7 173.3 0.7 173.3 3.1 166.9 3.1 166.9 7.6 172.9 7.6 172.9 10 166.9 10 166.9 16.9 163.9 16.9"></polygon>
                <path d="M186.2,17 L182.2,0.7 L185.4,0.7 L186.9,8.1 C187.3,10.1 187.7,12.2 188,13.8 L188,13.8 C188.3,12.1 188.7,10.2 189.2,8.1 L191,0.7 L194.1,0.7 L195.7,8.2 C196.1,10.1 196.4,11.9 196.7,13.7 L196.7,13.7 C197,11.9 197.4,10.1 197.8,8.1 L199.5,0.8 L202.5,0.8 L198.1,17.1 L195,17.1 L193.3,9.4 C192.9,7.5 192.6,6 192.4,4.2 L192.3,4.2 C192,5.9 191.7,7.5 191.2,9.4 L189.3,17.1 L186.2,17.1 L186.2,17 Z" id="Shape"></path>
                <polygon id="Shape" points="208.9 0.7 208.9 17 205.9 17 205.9 0.7"></polygon>
                <path d="M213.6,13.7 C214.5,14.3 216,14.7 217.5,14.7 C219.4,14.7 220.4,13.8 220.4,12.5 C220.4,11.3 219.6,10.5 217.5,9.8 C214.8,8.8 213.1,7.4 213.1,5.1 C213.1,2.4 215.3,0.4 218.9,0.4 C220.7,0.4 221.9,0.8 222.8,1.2 L222.1,3.6 C221.5,3.3 220.4,2.8 218.8,2.8 C216.9,2.8 216.1,3.8 216.1,4.8 C216.1,6.1 217,6.6 219.2,7.5 C222,8.6 223.4,10 223.4,12.3 C223.4,14.9 221.4,17.2 217.2,17.2 C215.5,17.2 213.7,16.7 212.8,16.2 L213.6,13.7 L213.6,13.7 Z" id="Shape"></path>
                <path d="M239.3,16.5 C238.6,16.8 237.1,17.2 235.1,17.2 C229.9,17.2 226.8,14 226.8,9 C226.8,3.6 230.5,0.4 235.5,0.4 C237.5,0.4 238.8,0.8 239.4,1.1 L238.8,3.5 C238,3.2 236.9,2.9 235.6,2.9 C232.3,2.9 229.9,5 229.9,8.9 C229.9,12.5 232,14.8 235.6,14.8 C236.8,14.8 238,14.6 238.8,14.2 L239.3,16.5 L239.3,16.5 Z" id="Shape"></path>
                <path d="M257,8.7 C257,14.2 253.7,17.3 249.2,17.3 C244.6,17.3 241.7,13.8 241.7,9 C241.7,4 244.9,0.5 249.4,0.5 C254.2,0.4 257,4 257,8.7 L257,8.7 Z M244.8,8.9 C244.8,12.2 246.5,14.9 249.3,14.9 C252.2,14.9 253.8,12.2 253.8,8.8 C253.8,5.7 252.3,2.8 249.3,2.8 C246.4,2.8 244.8,5.5 244.8,8.9 L244.8,8.9 Z" id="Shape"></path>
                <path d="M260.9,17 L260.9,0.7 L264.3,0.7 L268.5,7.7 C269.6,9.5 270.5,11.4 271.3,13.2 L271.3,13.2 C271.1,11 271,8.9 271,6.4 L271,0.7 L273.8,0.7 L273.8,17 L270.7,17 L266.5,9.8 C265.5,8 264.4,6 263.6,4.2 L263.5,4.2 C263.6,6.3 263.7,8.4 263.7,11.1 L263.7,16.9 L260.9,16.9 L260.9,17 Z" id="Shape"></path>
                <path d="M278.6,13.7 C279.5,14.3 281,14.7 282.5,14.7 C284.4,14.7 285.4,13.8 285.4,12.5 C285.4,11.3 284.6,10.5 282.5,9.8 C279.8,8.8 278.1,7.4 278.1,5.1 C278.1,2.4 280.3,0.4 283.9,0.4 C285.7,0.4 286.9,0.8 287.8,1.2 L287.1,3.6 C286.5,3.3 285.4,2.8 283.8,2.8 C281.9,2.8 281.1,3.8 281.1,4.8 C281.1,6.1 282,6.6 284.2,7.5 C287,8.6 288.4,10 288.4,12.3 C288.4,14.9 286.4,17.2 282.2,17.2 C280.5,17.2 278.7,16.7 277.8,16.2 L278.6,13.7 L278.6,13.7 Z" id="Shape"></path>
                <polygon id="Shape" points="295.5 0.7 295.5 17 292.5 17 292.5 0.7"></polygon>
                <path d="M300.3,17 L300.3,0.7 L303.7,0.7 L307.9,7.7 C309,9.5 309.9,11.4 310.7,13.2 L310.7,13.2 C310.5,11 310.4,8.9 310.4,6.4 L310.4,0.7 L313.2,0.7 L313.2,17 L310.1,17 L305.9,9.8 C304.9,8 303.8,6 303,4.2 L302.9,4.2 C303,6.3 303.1,8.4 303.1,11.1 L303.1,16.9 L300.3,16.9 L300.3,17 Z" id="Shape"></path>
                <polygon id="Shape" points="327.7 9.9 327.7 11.8 317 11.8 317 9.9"></polygon>
                <path d="M345.2,10.3 C345.1,8.2 345,5.7 345,3.5 L345,3.5 C344.5,5.5 343.8,7.7 343.1,9.7 L340.7,16.7 L338.4,16.7 L336.2,9.7 C335.6,7.6 335,5.4 334.6,3.4 L334.6,3.4 C334.5,5.5 334.4,8.1 334.3,10.3 L333.9,16.8 L331.1,16.8 L332.2,0.5 L336.1,0.5 L338.2,7 C338.8,8.9 339.3,10.8 339.7,12.6 L339.8,12.6 C340.2,10.8 340.8,8.8 341.4,6.9 L343.6,0.4 L347.5,0.4 L348.4,16.7 L345.5,16.7 L345.2,10.3 L345.2,10.3 Z" id="Shape"></path>
                <path d="M356,12.4 L354.6,17 L351.5,17 L356.7,0.7 L360.5,0.7 L365.8,17 L362.6,17 L361.1,12.4 L356,12.4 L356,12.4 Z M360.6,10.1 L359.3,6.1 C359,5.1 358.7,4 358.5,3.1 L358.4,3.1 C358.2,4 357.9,5.2 357.6,6.1 L356.3,10.1 L360.6,10.1 L360.6,10.1 Z" id="Shape"></path>
                <path d="M369.4,0.9 C370.7,0.7 372.4,0.6 374.1,0.6 C377.1,0.6 379.2,1.2 380.7,2.5 C382.3,3.8 383.3,5.7 383.3,8.5 C383.3,11.4 382.3,13.6 380.8,15 C379.2,16.5 376.6,17.2 373.4,17.2 C371.7,17.2 370.4,17.1 369.4,17 L369.4,0.9 L369.4,0.9 Z M372.4,14.7 C372.8,14.8 373.4,14.8 374,14.8 C377.9,14.8 380.2,12.7 380.2,8.5 C380.2,4.9 378.1,2.9 374.4,2.9 C373.5,2.9 372.8,3 372.4,3.1 L372.4,14.7 L372.4,14.7 Z" id="Shape"></path>
                <polygon id="Shape" points="390.3 0.7 390.3 17 387.3 17 387.3 0.7"></polygon>
                <path d="M395,13.7 C395.9,14.3 397.4,14.7 398.9,14.7 C400.8,14.7 401.8,13.8 401.8,12.5 C401.8,11.3 401,10.5 398.9,9.8 C396.2,8.8 394.5,7.4 394.5,5.1 C394.5,2.4 396.7,0.4 400.3,0.4 C402.1,0.4 403.3,0.8 404.2,1.2 L403.5,3.6 C402.9,3.3 401.8,2.8 400.2,2.8 C398.3,2.8 397.5,3.8 397.5,4.8 C397.5,6.1 398.4,6.6 400.6,7.5 C403.4,8.6 404.8,10 404.8,12.3 C404.8,14.9 402.8,17.2 398.6,17.2 C396.9,17.2 395.1,16.7 394.2,16.2 L395,13.7 L395,13.7 Z" id="Shape"></path>
                <path d="M423.3,8.7 C423.3,14.2 420,17.3 415.5,17.3 C410.9,17.3 408,13.8 408,9 C408,4 411.2,0.5 415.7,0.5 C420.5,0.4 423.3,4 423.3,8.7 L423.3,8.7 Z M411.2,8.9 C411.2,12.2 412.9,14.9 415.7,14.9 C418.6,14.9 420.2,12.2 420.2,8.8 C420.2,5.7 418.7,2.8 415.7,2.8 C412.7,2.8 411.2,5.5 411.2,8.9 L411.2,8.9 Z" id="Shape"></path>
                <path d="M427.2,17 L427.2,0.7 L430.6,0.7 L434.8,7.7 C435.9,9.5 436.8,11.4 437.6,13.2 L437.6,13.2 C437.4,11 437.3,8.9 437.3,6.4 L437.3,0.7 L440.1,0.7 L440.1,17 L437,17 L432.8,9.8 C431.8,8 430.7,6 429.9,4.2 L429.8,4.2 C429.9,6.3 430,8.4 430,11.1 L430,16.9 L427.2,16.9 L427.2,17 Z" id="Shape"></path>
            </g>
            <path d="M61.4,200.1 C62.1,201.1 63.6,203.1 64.4,203.1 C65.2,203.1 66.7,201.1 67.4,200.1 C109.8,190.2 133.4,125.8 128,73.4 C126.9,62.7 124.6,53.3 121.3,45.3 C121.2,45.1 120.8,44.2 120.8,44 C118.1,37.8 114.7,32.5 110.9,28.3 C103.9,20.6 95.1,16.3 85.5,16.2 L85.3,16.2 C83.7,12.8 79.6,10.4 75.8,9.9 C75.8,9.9 73.6,0.8 64.5,0.8 C55.2,0.9 53,10 53,10 C49.2,10.5 45.1,12.9 43.6,16.3 C43.6,16.3 43.8,16.3 43.4,16.3 C33.7,16.4 25,20.7 18,28.4 C14.1,32.6 10.8,37.9 8.1,44.1 C8,44.3 7.6,45.1 7.6,45.4 C4.3,53.4 1.9,62.8 0.9,73.5 C-4.6,125.9 19,190.3 61.4,200.1 L61.4,200.1 Z" id="Shape" fill="url(#radialGradient-1)"></path>
            <path d="M128,73.5 C126.9,62.8 124.6,53.4 121.3,45.4 C121.2,45.2 120.8,44.3 120.8,44.1 C118.1,37.9 114.7,32.6 110.9,28.4 C103.9,20.7 95.1,16.4 85.5,16.3 L85.3,16.3 C83.7,12.9 79.6,10.5 75.8,10 C75.8,10 73.6,0.9 64.5,0.9 C55.2,0.9 53,10 53,10 C49.2,10.5 45.1,12.9 43.6,16.3 C43.6,16.3 43.8,16.3 43.4,16.3 C33.7,16.4 25,20.7 18,28.4 C14.1,32.6 10.8,37.9 8.1,44.1 C8,44.3 7.6,45.1 7.6,45.4 C4.3,53.4 1.9,62.8 0.9,73.5 C-4.6,125.9 19,190.3 61.4,200.1 C62.1,201.1 63.6,203.1 64.4,203.1 C65.2,203.1 66.7,201.1 67.4,200.1 C109.7,190.3 133.3,125.9 128,73.5 L128,73.5 Z M126.1,73.7 C126.2,74.4 126.2,75 126.3,75.7 C124.3,75.7 122.3,76 120.4,76.7 C119,60.4 114.6,46.9 108,37.8 C109.3,36.2 111.1,34.9 112.9,34 C119.8,43.6 124.4,57.1 126.1,73.7 L126.1,73.7 Z M43.4,35.9 C41.9,36.3 41.8,38.9 42,40.6 C42.3,42.5 43.3,44.5 44.4,44.3 C46.5,44 48.1,39.6 47.9,36.3 C47.7,31.6 45.1,30.4 43.5,30.4 C41,30.4 39.1,34.4 39.1,39.6 C39.1,44.8 41,48.8 43.5,48.8 C44.5,48.9 63.9,51.5 62.4,34.6 C61.7,26.6 56.8,20.9 52.3,18.2 C56.6,15.6 62.1,20.1 63.7,25.6 C64,26.7 64.7,26.7 65,25.5 C66.8,19.8 71.6,15.6 75.8,18.2 C71.3,20.9 66.9,26.6 66.2,34.6 C64.7,51.6 84.2,49 85.2,48.9 C87.7,48.9 89.6,44.9 89.6,39.7 C89.6,34.5 87.7,30.5 85.2,30.5 C83.7,30.5 81.1,31.7 80.8,36.4 C80.6,39.7 82.2,44.1 84.3,44.4 C85.4,44.5 86.4,42.6 86.7,40.7 C87,39 86.8,36.4 85.3,36 C84.8,35.9 84.3,36.2 84.2,36.6 C84.1,37 85.1,37.8 85.1,39.7 C85,42.6 82.1,41.1 82.5,36.5 C82.8,32.4 84.9,32.7 85,32.7 C86.2,32.7 87.9,35.1 87.9,39.7 C87.9,43.7 85.9,48.1 82.2,45.8 C79.1,43.5 77.8,38.2 78.7,34.1 C79.1,32.2 80.7,27.1 86,27.1 C93.4,27.1 100.4,31 106,38.2 L106,38.2 L106.1,38.2 L106.2,38.3 C105.7,40.1 102.6,47.2 90.1,54.5 L90.1,54.5 C85.9,51.8 81,50.7 76.6,50.7 C69.7,50.7 67.6,52.8 64.4,52.8 L64.3,52.8 L64.2,52.8 C61,52.8 58.9,50.7 52,50.7 C47.6,50.7 42.7,51.8 38.5,54.5 C38.5,54.5 38.5,54.5 38.4,54.5 C26,47.3 22.9,40.4 22.3,38.4 C27.9,31 35,27.1 42.5,27.1 C47.7,27.1 49.4,32.2 49.7,34.1 C50.6,38.2 49.3,43.5 46.2,45.8 C42.5,48.1 40.5,43.7 40.5,39.7 C40.5,35.1 42.3,32.7 43.4,32.7 C43.5,32.7 45.6,32.4 45.9,36.5 C46.3,41.1 43.4,42.6 43.3,39.7 C43.3,37.8 44.3,37 44.2,36.6 C44.3,36.1 43.8,35.8 43.4,35.9 L43.4,35.9 Z M107.2,39.6 C113.6,48.5 118,61.9 118.8,78.8 C116.6,80 111.7,82.1 105.3,82.7 C103.9,73.9 100.2,61.9 91.3,55.4 C102.6,48.7 106.1,42.4 107.2,39.6 L107.2,39.6 Z M37.4,55.4 C28.5,61.9 24.9,73.9 23.4,82.7 C17.1,82.1 12.3,80 10,78.8 C11,61.9 15.3,48.6 21.5,39.7 C22.6,42.6 26.2,48.8 37.4,55.4 L37.4,55.4 Z M23.2,83.9 C22.7,87.1 22.5,89.9 22.5,91.6 C22.4,94.3 22.4,97.1 22.5,99.8 C22.5,100.3 22.6,100.9 22.6,101.4 L22.6,101.8 C22.9,107.1 23.7,112.5 24.8,117.8 L24.9,118.3 C27,127.6 29.8,134.4 30.9,136.8 C32.9,141.1 34.8,145 36.8,148.5 C32.8,152.1 26.9,153.5 24.9,153.9 C14.2,132.6 8.7,105 9.9,80.2 C12.4,81.4 17.1,83.3 23.2,83.9 L23.2,83.9 Z M37.5,149.6 C44.6,161.9 51.7,169.2 57.1,173.1 C55.1,178.1 50.5,181.9 48.9,183.2 C39.6,177 31.7,167 25.6,155.1 C27.9,154.5 33.5,153.1 37.5,149.6 L37.5,149.6 Z M58.1,173.8 L58.1,173.8 C61.1,176 64.1,177.2 64.4,177.2 C64.6,177.1 67.7,175.9 70.6,173.8 C70.7,173.8 70.7,173.7 70.8,173.7 C72.8,178.5 76.9,182.2 78.9,183.8 C76.2,185.5 73.4,186.9 70.5,188 L70.5,187.7 C69.9,184.6 65.8,184 64.4,184 C63,184 58.9,184.6 58.3,187.7 L58.3,188 C55.4,186.9 52.7,185.6 50,183.9 C51.8,182.3 56.1,178.6 58.1,173.8 L58.1,173.8 Z M71.8,172.9 C77.2,169 84.2,161.6 91.3,149.4 C95.1,152.8 100.5,154.4 103,154.9 C97,166.9 89.2,176.8 80,183.1 C78.3,181.7 73.7,177.8 71.8,172.9 L71.8,172.9 Z M91.9,148.3 C93.9,144.8 95.8,141 97.7,136.7 C98.8,134.2 101.6,127.5 103.7,118.2 L103.8,117.7 C104.9,112.4 105.7,107 106,101.7 L106,101.3 C106,100.8 106.1,100.2 106.1,99.7 C106.2,97 106.2,94.2 106.1,91.5 C106,89.8 105.8,87.1 105.4,83.8 C111.5,83.3 116.2,81.3 118.7,80.1 C119.6,104.9 114.2,132.4 103.6,153.8 C101.3,153.3 95.7,151.8 91.9,148.3 L91.9,148.3 Z M84.9,18.4 C95.8,18.4 105.1,23.6 112.2,33 C110.3,33.9 108.6,35.2 107.2,36.8 C101.5,29.4 94.4,25.3 86.3,25.2 C81.4,25.2 78,28.9 77,33.7 C76.2,37.6 77,42.4 79.4,45.5 C80.6,46.8 80.1,47.2 79.7,47.2 C76.5,47.3 67.2,45.2 68.1,34.7 C68.7,27.9 72,23.4 75.8,20.7 C79.3,18.7 83.2,18.4 84.9,18.4 L84.9,18.4 Z M64.4,2.6 C71.8,2.6 73.5,9.8 73.5,9.9 C73,9.9 72.5,10 72,10.1 L70.6,10.5 C68.1,11.3 65.9,13.1 64.5,15.4 C64.5,15.5 64.4,15.6 64.3,15.7 C64.2,15.6 64.1,15.5 64.1,15.4 C62.7,13 60.6,11.3 58.1,10.5 L56.7,10.1 C56.2,10 55.7,9.9 55.2,9.9 C55.2,9.8 56.9,2.6 64.4,2.6 L64.4,2.6 Z M54.6,11.2 C58.8,11.2 62.5,13.9 63.8,17.9 C64.1,18.9 64.7,18.9 65,17.9 C66.3,13.9 70,11.2 74.2,11.2 C77.8,11.2 81.1,13.3 82.8,16.5 C81.6,16.7 80.2,17.1 78.8,17.6 C76.3,15.5 73.9,15.5 72.3,16 C68.9,17 66,20.5 64.5,23.5 L64.4,23.6 C64.4,23.6 64.3,23.6 64.3,23.5 C62.8,20.5 60,17 56.5,16 C54.9,15.5 52.5,15.5 50,17.6 C48.6,17.1 47.3,16.7 46,16.5 C47.6,13.3 50.9,11.2 54.6,11.2 L54.6,11.2 Z M43.8,18.4 C45.4,18.4 49.3,18.7 52.8,20.8 C56.6,23.5 59.9,28 60.5,34.8 C61.4,45.3 50.7,46.9 48.7,46.9 C48.4,46.9 48.2,46.6 49.3,45.5 C51.8,42.4 52.5,37.5 51.7,33.7 C50.7,28.9 47.3,25.1 42.4,25.2 C34.3,25.2 27.1,29.4 21.4,36.8 C20,35.2 18.3,33.9 16.5,33 C23.6,23.6 33,18.4 43.8,18.4 L43.8,18.4 Z M2.6,73.7 C4.3,57.1 8.9,43.6 15.7,34 C17.6,34.9 19.3,36.2 20.6,37.8 C14,46.9 9.6,60.4 8.2,76.7 C6.4,76 4.3,75.6 2.3,75.7 C2.5,75 2.5,74.4 2.6,73.7 L2.6,73.7 Z M14.5,151.2 C4.7,128.7 0.3,101.8 2.3,77 C4.3,76.9 6.3,77.3 8.2,78.1 C8.2,78.6 8.1,79.1 8.1,79.6 C6.6,104.3 12,131.8 22.6,153.4 C20.5,153.9 18.5,154.7 16.8,156 C16,154.4 15.2,152.8 14.5,151.2 L14.5,151.2 Z M17.3,157.1 C19,155.8 21.1,154.9 23.1,154.5 C29.3,166.7 37.2,177 46.5,183.7 C44.9,185.1 43.6,186.9 42.7,188.8 C32.9,181.8 24.2,171 17.3,157.1 L17.3,157.1 Z M43.8,189.6 C44.6,187.6 46,185.9 47.6,184.5 C50.9,186.8 54.4,188.6 58,189.9 C57.9,192.6 58.6,195.1 59.5,197.1 C54.1,195.6 48.8,193.1 43.8,189.6 L43.8,189.6 Z M65.1,200 C65.1,200 64.7,200.5 64.3,200.5 C63.9,200.5 63.6,200 63.5,200 C61.7,197.7 59,193.3 60,188 C60.3,186.5 62.8,185.8 64.3,185.8 C65.7,185.8 68.3,186.5 68.6,188 C69.7,193.3 67,197.7 65.1,200 L65.1,200 Z M69.2,197.1 C70.1,195.1 70.8,192.6 70.7,189.9 C74.4,188.6 77.8,186.8 81.1,184.5 C82.8,185.9 84.1,187.7 84.9,189.6 C80,193 74.7,195.6 69.2,197.1 L69.2,197.1 Z M86,188.8 C85.1,186.9 83.8,185.1 82.2,183.7 C91.5,177 99.4,166.7 105.6,154.5 C107.7,154.9 109.7,155.8 111.4,157.1 C104.5,170.9 95.9,181.7 86,188.8 L86,188.8 Z M114.2,151.2 C113.5,152.8 112.8,154.4 112,155.9 C110.3,154.6 108.3,153.7 106.2,153.3 C116.8,131.7 122.2,104.2 120.7,79.5 C120.7,79 120.6,78.5 120.6,78 C122.4,77.2 124.5,76.9 126.5,76.9 C128.4,101.9 124,128.7 114.2,151.2 L114.2,151.2 Z" id="Shape" fill="#262425"></path>
            <path d="M104.1,91.9 C103.8,85.6 102,64.4 89,56.1 C86.1,54.2 82.3,53 78.8,52.8 L77.4,52.8 C74,52.8 71.1,53.6 68.7,54.2 C67.1,54.6 65.6,55 64.4,55.1 L64.2,55.1 C63,55.1 61.6,54.7 59.9,54.2 C57.5,53.6 54.6,52.8 51.2,52.8 L49.8,52.8 C46.2,53 42.5,54.2 39.6,56.1 C26.6,64.4 24.7,85.6 24.5,91.9 C23.6,114.1 30.3,131.7 32.5,136.5 C41.5,156.4 52.7,169.6 63.5,174.4 L64.4,174.8 L65.3,174.4 C76.1,169.6 87.2,156.4 96.3,136.5 C98.3,131.7 105,114.1 104.1,91.9 L104.1,91.9 Z" id="Shape" fill="url(#linearGradient-2)"></path>
            <path d="M83.6,76.5 L83.6,80.8 L84.5,80.7 L84.9,80.7 C85.4,80.7 86.3,80.8 86.8,81.3 C87.3,81.8 87.5,82.7 87.3,83.9 C87.3,83.9 78.6,121.4 77,128.6 C75.1,119.6 64.8,70.3 64.8,70.3 L64.8,70.1 L62.8,70.1 L62.8,70.3 C62.8,70.3 55.3,118.3 53.9,127.9 C52,119.6 43.7,84 43.7,84 L43.7,83.4 C43.7,82.4 43.9,81.7 44.4,81.2 C45,80.6 46,80.7 46.1,80.7 L47,80.8 L47,76.6 L32.2,76.6 L32.2,80.7 L32.8,80.8 C33.1,80.9 34.7,81.3 35,82.7 C35,82.7 51.9,155.3 52.6,158.4 L52.6,158.6 L55.1,158.6 L55.1,158.4 C55.2,157.9 62.1,112.8 63.4,104.4 C65,112.8 73.8,157.9 73.9,158.4 L73.9,158.6 L76.2,158.6 L93,82.7 C93.4,81.1 94.8,81 95.3,81 L95.5,81 L96.3,81.1 L96.3,76.7 L83.6,76.7 L83.6,76.5 Z" id="Shape" fill="#FFFFFF"></path>
        </g>
    </g>
</svg>