<?xml version="1.0" encoding="UTF-8"?>
<svg width="129px" height="203px" viewBox="0 0 129 203" version="1.1" xmlns="http://www.w3.org/2000/svg" xmlns:xlink="http://www.w3.org/1999/xlink">
    <!-- Generator: Sketch 41.2 (35397) - http://www.bohemiancoding.com/sketch -->
    <title>Group</title>
    <desc>Created with Sketch.</desc>
    <defs>
        <radialGradient cx="49.9368753%" cy="50.0247158%" fx="49.9368753%" fy="50.0247158%" r="65.8815789%" id="radialGradient-1">
            <stop stop-color="#FFFFFF" offset="16.56%"></stop>
            <stop stop-color="#F6EEE5" offset="29.82%"></stop>
            <stop stop-color="#DEBF9C" offset="68.52%"></stop>
            <stop stop-color="#D5AD80" offset="86.5%"></stop>
        </radialGradient>
        <linearGradient x1="49.9686277%" y1="100.003607%" x2="49.9686277%" y2="-0.0142622951%" id="linearGradient-2">
            <stop stop-color="#891C21" offset="1.22699%"></stop>
            <stop stop-color="#931E23" offset="3.047632%"></stop>
            <stop stop-color="#A92027" offset="8.241533%"></stop>
            <stop stop-color="#BB2029" offset="14.19%"></stop>
            <stop stop-color="#C8202A" offset="21.24%"></stop>
            <stop stop-color="#D0202B" offset="30.49%"></stop>
            <stop stop-color="#D2202B" offset="50.31%"></stop>
            <stop stop-color="#CF202B" offset="67.02%"></stop>
            <stop stop-color="#C6202A" offset="77.71%"></stop>
            <stop stop-color="#B72028" offset="86.7%"></stop>
            <stop stop-color="#A21F25" offset="94.7%"></stop>
            <stop stop-color="#911D22" offset="100%"></stop>
        </linearGradient>
    </defs>
    <g id="Page-1" stroke="none" stroke-width="1" fill="none" fill-rule="evenodd">
        <g id="Group">
            <path d="M61.2885576,199.3 C61.9885576,200.3 63.4885576,202.3 64.2885576,202.3 C65.0885576,202.3 66.5885576,200.3 67.2885576,199.3 C109.688558,189.4 133.288558,125 127.888558,72.6 C126.788558,61.9 124.488558,52.5 121.188558,44.5 C121.088558,44.3 120.688558,43.4 120.688558,43.2 C117.988558,37 114.588558,31.7 110.788558,27.5 C103.788558,19.8 94.9885576,15.5 85.3885576,15.4 L85.1885576,15.4 C83.5885576,12 79.4885576,9.6 75.6885576,9.1 C75.6885576,9.1 73.4885576,0 64.3885576,0 C55.0885576,0.1 52.8885576,9.2 52.8885576,9.2 C49.0885576,9.7 44.9885576,12.1 43.4885576,15.5 C43.4885576,15.5 43.6885576,15.5 43.2885576,15.5 C33.5885576,15.6 24.8885576,19.9 17.8885576,27.6 C13.9885576,31.8 10.6885576,37.1 7.98855757,43.3 C7.88855757,43.5 7.48855757,44.3 7.48855757,44.6 C4.18855757,52.6 1.78855757,62 0.788557573,72.7 C-4.71144243,125.1 18.8885576,189.5 61.2885576,199.3 Z" id="Shape" fill="url(#radialGradient-1)"></path>
            <path d="M127.888558,72.6 C126.788558,61.9 124.488558,52.5 121.188558,44.5 C121.088558,44.3 120.688558,43.4 120.688558,43.2 C117.988558,37 114.588558,31.7 110.788558,27.5 C103.788558,19.8 94.9885576,15.5 85.3885576,15.4 L85.1885576,15.4 C83.5885576,12 79.4885576,9.6 75.6885576,9.1 C75.6885576,9.1 73.4885576,0 64.3885576,0 C55.0885576,-3.99680289e-15 52.8885576,9.1 52.8885576,9.1 C49.0885576,9.6 44.9885576,12 43.4885576,15.4 C43.4885576,15.4 43.6885576,15.4 43.2885576,15.4 C33.5885576,15.5 24.8885576,19.8 17.8885576,27.5 C13.9885576,31.7 10.6885576,37 7.98855757,43.2 C7.88855757,43.4 7.48855757,44.2 7.48855757,44.5 C4.18855757,52.5 1.78855757,61.9 0.788557573,72.6 C-4.71144243,125 18.8885576,189.4 61.2885576,199.2 C61.9885576,200.2 63.4885576,202.2 64.2885576,202.2 C65.0885576,202.2 66.5885576,200.2 67.2885576,199.2 C109.588558,189.4 133.188558,125 127.888558,72.6 Z M125.988558,72.8 C126.088558,73.5 126.088558,74.1 126.188558,74.8 C124.188558,74.8 122.188558,75.1 120.288558,75.8 C118.888558,59.5 114.488558,46 107.888558,36.9 C109.188558,35.3 110.988558,34 112.788558,33.1 C119.688558,42.7 124.288558,56.2 125.988558,72.8 Z M43.2885576,35 C41.7885576,35.4 41.6885576,38 41.8885576,39.7 C42.1885576,41.6 43.1885576,43.6 44.2885576,43.4 C46.3885576,43.1 47.9885576,38.7 47.7885576,35.4 C47.5885576,30.7 44.9885576,29.5 43.3885576,29.5 C40.8885576,29.5 38.9885576,33.5 38.9885576,38.7 C38.9885576,43.9 40.8885576,47.9 43.3885576,47.9 C44.3885576,48 63.7885576,50.6 62.2885576,33.7 C61.5885576,25.7 56.6885576,20 52.1885576,17.3 C56.4885576,14.7 61.9885576,19.2 63.5885576,24.7 C63.8885576,25.8 64.5885576,25.8 64.8885576,24.6 C66.6885576,18.9 71.4885576,14.7 75.6885576,17.3 C71.1885576,20 66.7885576,25.7 66.0885576,33.7 C64.5885576,50.7 84.0885576,48.1 85.0885576,48 C87.5885576,48 89.4885576,44 89.4885576,38.8 C89.4885576,33.6 87.5885576,29.6 85.0885576,29.6 C83.5885576,29.6 80.9885576,30.8 80.6885576,35.5 C80.4885576,38.8 82.0885576,43.2 84.1885576,43.5 C85.2885576,43.6 86.2885576,41.7 86.5885576,39.8 C86.8885576,38.1 86.6885576,35.5 85.1885576,35.1 C84.6885576,35 84.1885576,35.3 84.0885576,35.7 C83.9885576,36.1 84.9885576,36.9 84.9885576,38.8 C84.8885576,41.7 81.9885576,40.2 82.3885576,35.6 C82.6885576,31.5 84.7885576,31.8 84.8885576,31.8 C86.0885576,31.8 87.7885576,34.2 87.7885576,38.8 C87.7885576,42.8 85.7885576,47.2 82.0885576,44.9 C78.9885576,42.6 77.6885576,37.3 78.5885576,33.2 C78.9885576,31.3 80.5885576,26.2 85.8885576,26.2 C93.2885576,26.2 100.288558,30.1 105.888558,37.3 L105.888558,37.3 L105.988558,37.3 L106.088558,37.4 C105.588558,39.2 102.488558,46.3 89.9885576,53.6 L89.9885576,53.6 C85.7885576,50.9 80.8885576,49.8 76.4885576,49.8 C69.5885576,49.8 67.4885576,51.9 64.2885576,51.9 L64.1885576,51.9 L64.0885576,51.9 C60.8885576,51.9 58.7885576,49.8 51.8885576,49.8 C47.4885576,49.8 42.5885576,50.9 38.3885576,53.6 C38.3885576,53.6 38.3885576,53.6 38.2885576,53.6 C25.8885576,46.4 22.7885576,39.5 22.1885576,37.5 C27.7885576,30.1 34.8885576,26.2 42.3885576,26.2 C47.5885576,26.2 49.2885576,31.3 49.5885576,33.2 C50.4885576,37.3 49.1885576,42.6 46.0885576,44.9 C42.3885576,47.2 40.3885576,42.8 40.3885576,38.8 C40.3885576,34.2 42.1885576,31.8 43.2885576,31.8 C43.3885576,31.8 45.4885576,31.5 45.7885576,35.6 C46.1885576,40.2 43.2885576,41.7 43.1885576,38.8 C43.1885576,36.9 44.1885576,36.1 44.0885576,35.7 C44.1885576,35.2 43.6885576,34.9 43.2885576,35 Z M107.088558,38.7 C113.488558,47.6 117.888558,61 118.688558,77.9 C116.488558,79.1 111.588558,81.2 105.188558,81.8 C103.788558,73 100.088558,61 91.1885576,54.5 C102.488558,47.8 105.988558,41.5 107.088558,38.7 Z M37.2885576,54.5 C28.3885576,61 24.7885576,73 23.2885576,81.8 C16.9885576,81.2 12.1885576,79.1 9.88855757,77.9 C10.8885576,61 15.1885576,47.7 21.3885576,38.8 C22.4885576,41.7 26.0885576,47.9 37.2885576,54.5 Z M23.0885576,83 C22.5885576,86.2 22.3885576,89 22.3885576,90.7 C22.2885576,93.4 22.2885576,96.2 22.3885576,98.9 C22.3885576,99.4 22.4885576,100 22.4885576,100.5 L22.4885576,100.9 C22.7885576,106.2 23.5885576,111.6 24.6885576,116.9 L24.7885576,117.4 C26.8885576,126.7 29.6885576,133.5 30.7885576,135.9 C32.7885576,140.2 34.6885576,144.1 36.6885576,147.6 C32.6885576,151.2 26.7885576,152.6 24.7885576,153 C14.0885576,131.7 8.58855757,104.1 9.78855757,79.3 C12.2885576,80.5 16.9885576,82.4 23.0885576,83 Z M37.3885576,148.7 C44.4885576,161 51.5885576,168.3 56.9885576,172.2 C54.9885576,177.2 50.3885576,181 48.7885576,182.3 C39.4885576,176.1 31.5885576,166.1 25.4885576,154.2 C27.7885576,153.6 33.3885576,152.2 37.3885576,148.7 Z M57.9885576,172.9 L57.9885576,172.9 C60.9885576,175.1 63.9885576,176.3 64.2885576,176.3 C64.4885576,176.2 67.5885576,175 70.4885576,172.9 C70.5885576,172.9 70.5885576,172.8 70.6885576,172.8 C72.6885576,177.6 76.7885576,181.3 78.7885576,182.9 C76.0885576,184.6 73.2885576,186 70.3885576,187.1 L70.3885576,186.8 C69.7885576,183.7 65.6885576,183.1 64.2885576,183.1 C62.8885576,183.1 58.7885576,183.7 58.1885576,186.8 L58.1885576,187.1 C55.2885576,186 52.5885576,184.7 49.8885576,183 C51.6885576,181.4 55.9885576,177.7 57.9885576,172.9 Z M71.6885576,172 C77.0885576,168.1 84.0885576,160.7 91.1885576,148.5 C94.9885576,151.9 100.388558,153.5 102.888558,154 C96.8885576,166 89.0885576,175.9 79.8885576,182.2 C78.1885576,180.8 73.5885576,176.9 71.6885576,172 Z M91.7885576,147.4 C93.7885576,143.9 95.6885576,140.1 97.5885576,135.8 C98.6885576,133.3 101.488558,126.6 103.588558,117.3 L103.688558,116.8 C104.788558,111.5 105.588558,106.1 105.888558,100.8 L105.888558,100.4 C105.888558,99.9 105.988558,99.3 105.988558,98.8 C106.088558,96.1 106.088558,93.3 105.988558,90.6 C105.888558,88.9 105.688558,86.2 105.288558,82.9 C111.388558,82.4 116.088558,80.4 118.588558,79.2 C119.488558,104 114.088558,131.5 103.488558,152.9 C101.188558,152.4 95.5885576,150.9 91.7885576,147.4 Z M84.7885576,17.5 C95.6885576,17.5 104.988558,22.7 112.088558,32.1 C110.188558,33 108.488558,34.3 107.088558,35.9 C101.388558,28.5 94.2885576,24.4 86.1885576,24.3 C81.2885576,24.3 77.8885576,28 76.8885576,32.8 C76.0885576,36.7 76.8885576,41.5 79.2885576,44.6 C80.4885576,45.9 79.9885576,46.3 79.5885576,46.3 C76.3885576,46.4 67.0885576,44.3 67.9885576,33.8 C68.5885576,27 71.8885576,22.5 75.6885576,19.8 C79.1885576,17.8 83.0885576,17.5 84.7885576,17.5 Z M64.2885576,1.7 C71.6885576,1.7 73.3885576,8.9 73.3885576,9 C72.8885576,9 72.3885576,9.1 71.8885576,9.2 L70.4885576,9.6 C67.9885576,10.4 65.7885576,12.2 64.3885576,14.5 C64.3885576,14.6 64.2885576,14.7 64.1885576,14.8 C64.0885576,14.7 63.9885576,14.6 63.9885576,14.5 C62.5885576,12.1 60.4885576,10.4 57.9885576,9.6 L56.5885576,9.2 C56.0885576,9.1 55.5885576,9 55.0885576,9 C55.0885576,8.9 56.7885576,1.7 64.2885576,1.7 Z M54.4885576,10.3 C58.6885576,10.3 62.3885576,13 63.6885576,17 C63.9885576,18 64.5885576,18 64.8885576,17 C66.1885576,13 69.8885576,10.3 74.0885576,10.3 C77.6885576,10.3 80.9885576,12.4 82.6885576,15.6 C81.4885576,15.8 80.0885576,16.2 78.6885576,16.7 C76.1885576,14.6 73.7885576,14.6 72.1885576,15.1 C68.7885576,16.1 65.8885576,19.6 64.3885576,22.6 L64.2885576,22.7 C64.2885576,22.7 64.1885576,22.7 64.1885576,22.6 C62.6885576,19.6 59.8885576,16.1 56.3885576,15.1 C54.7885576,14.6 52.3885576,14.6 49.8885576,16.7 C48.4885576,16.2 47.1885576,15.8 45.8885576,15.6 C47.4885576,12.4 50.7885576,10.3 54.4885576,10.3 Z M43.6885576,17.5 C45.2885576,17.5 49.1885576,17.8 52.6885576,19.9 C56.4885576,22.6 59.7885576,27.1 60.3885576,33.9 C61.2885576,44.4 50.5885576,46 48.5885576,46 C48.2885576,46 48.0885576,45.7 49.1885576,44.6 C51.6885576,41.5 52.3885576,36.6 51.5885576,32.8 C50.5885576,28 47.1885576,24.2 42.2885576,24.3 C34.1885576,24.3 26.9885576,28.5 21.2885576,35.9 C19.8885576,34.3 18.1885576,33 16.3885576,32.1 C23.4885576,22.7 32.8885576,17.5 43.6885576,17.5 Z M2.48855757,72.8 C4.18855757,56.2 8.78855757,42.7 15.5885576,33.1 C17.4885576,34 19.1885576,35.3 20.4885576,36.9 C13.8885576,46 9.48855757,59.5 8.08855757,75.8 C6.28855757,75.1 4.18855757,74.7 2.18855757,74.8 C2.38855757,74.1 2.38855757,73.5 2.48855757,72.8 Z M14.3885576,150.3 C4.58855757,127.8 0.188557573,100.9 2.18855757,76.1 C4.18855757,76 6.18855757,76.4 8.08855757,77.2 C8.08855757,77.7 7.98855757,78.2 7.98855757,78.7 C6.48855757,103.4 11.8885576,130.9 22.4885576,152.5 C20.3885576,153 18.3885576,153.8 16.6885576,155.1 C15.8885576,153.5 15.0885576,151.9 14.3885576,150.3 Z M17.1885576,156.2 C18.8885576,154.9 20.9885576,154 22.9885576,153.6 C29.1885576,165.8 37.0885576,176.1 46.3885576,182.8 C44.7885576,184.2 43.4885576,186 42.5885576,187.9 C32.7885576,180.9 24.0885576,170.1 17.1885576,156.2 Z M43.6885576,188.7 C44.4885576,186.7 45.8885576,185 47.4885576,183.6 C50.7885576,185.9 54.2885576,187.7 57.8885576,189 C57.7885576,191.7 58.4885576,194.2 59.3885576,196.2 C53.9885576,194.7 48.6885576,192.2 43.6885576,188.7 Z M64.9885576,199.1 C64.9885576,199.1 64.5885576,199.6 64.1885576,199.6 C63.7885576,199.6 63.4885576,199.1 63.3885576,199.1 C61.5885576,196.8 58.8885576,192.4 59.8885576,187.1 C60.1885576,185.6 62.6885576,184.9 64.1885576,184.9 C65.5885576,184.9 68.1885576,185.6 68.4885576,187.1 C69.5885576,192.4 66.8885576,196.8 64.9885576,199.1 Z M69.0885576,196.2 C69.9885576,194.2 70.6885576,191.7 70.5885576,189 C74.2885576,187.7 77.6885576,185.9 80.9885576,183.6 C82.6885576,185 83.9885576,186.8 84.7885576,188.7 C79.8885576,192.1 74.5885576,194.7 69.0885576,196.2 Z M85.8885576,187.9 C84.9885576,186 83.6885576,184.2 82.0885576,182.8 C91.3885576,176.1 99.2885576,165.8 105.488558,153.6 C107.588558,154 109.588558,154.9 111.288558,156.2 C104.388558,170 95.7885576,180.8 85.8885576,187.9 Z M114.088558,150.3 C113.388558,151.9 112.688558,153.5 111.888558,155 C110.188558,153.7 108.188558,152.8 106.088558,152.4 C116.688558,130.8 122.088558,103.3 120.588558,78.6 C120.588558,78.1 120.488558,77.6 120.488558,77.1 C122.288558,76.3 124.388558,76 126.388558,76 C128.288558,101 123.888558,127.8 114.088558,150.3 Z" id="Shape" fill="#262425"></path>
            <path d="M103.682642,91.1 C103.382642,84.8 101.582642,63.6 88.5826424,55.3 C85.6826424,53.4 81.8826424,52.2 78.3826424,52 L76.9826424,52 C73.5826424,52 70.6826424,52.8 68.2826424,53.4 C66.6826424,53.8 65.1826424,54.2 63.9826424,54.3 L63.7826424,54.3 C62.5826424,54.3 61.1826424,53.9 59.4826424,53.4 C57.0826424,52.8 54.1826424,52 50.7826424,52 L49.3826424,52 C45.7826424,52.2 42.0826424,53.4 39.1826424,55.3 C26.1826424,63.6 24.2826424,84.8 24.0826424,91.1 C23.1826424,113.3 29.8826424,130.9 32.0826424,135.7 C41.0826424,155.6 52.2826424,168.8 63.0826424,173.6 L63.9826424,174 L64.8826424,173.6 C75.6826424,168.8 86.7826424,155.6 95.8826424,135.7 C97.8826424,130.9 104.582642,113.3 103.682642,91.1 Z" id="Shape" fill="url(#linearGradient-2)"></path>
            <path d="M83.4,75.4 L83.4,79.7 L84.3,79.6 L84.7,79.6 C85.2,79.6 86.1,79.7 86.6,80.2 C87.1,80.7 87.3,81.6 87.1,82.8 C87.1,82.8 78.4,120.3 76.8,127.5 C74.9,118.5 64.6,69.2 64.6,69.2 L64.6,69 L62.6,69 L62.6,69.2 C62.6,69.2 55.1,117.2 53.7,126.8 C51.8,118.5 43.5,82.9 43.5,82.9 L43.5,82.3 C43.5,81.3 43.7,80.6 44.2,80.1 C44.8,79.5 45.8,79.6 45.9,79.6 L46.8,79.7 L46.8,75.5 L32,75.5 L32,79.6 L32.6,79.7 C32.9,79.8 34.5,80.2 34.8,81.6 C34.8,81.6 51.7,154.2 52.4,157.3 L52.4,157.5 L54.9,157.5 L54.9,157.3 C55,156.8 61.9,111.7 63.2,103.3 C64.8,111.7 73.6,156.8 73.7,157.3 L73.7,157.5 L76,157.5 L92.8,81.6 C93.2,80 94.6,79.9 95.1,79.9 L95.3,79.9 L96.1,80 L96.1,75.6 L83.4,75.6 L83.4,75.4 Z" id="Shape" fill="#FFFFFF"></path>
        </g>
    </g>
</svg>